<?xml version="1.0" standalone="no"?>
<!DOCTYPE svg PUBLIC "-//W3C//DTD SVG 20010904//EN"
 "http://www.w3.org/TR/2001/REC-SVG-20010904/DTD/svg10.dtd">
<svg version="1.0" xmlns="http://www.w3.org/2000/svg"
 width="512.000000pt" height="512.000000pt" viewBox="0 0 512.000000 512.000000"
 preserveAspectRatio="xMidYMid meet">

<g transform="translate(0.000000,512.000000) scale(0.100000,-0.100000)"
fill="#000000" stroke="none">
<path d="M1350 5104 c-112 -30 -207 -118 -251 -231 -16 -44 -23 -88 -27 -179
l-5 -121 -149 -6 c-128 -5 -160 -10 -231 -35 -149 -51 -268 -152 -340 -289
-72 -138 -68 -3 -65 -1990 l3 -1788 21 -56 c63 -163 163 -275 312 -349 127
-63 30 -60 1942 -60 1912 0 1815 -3 1942 60 149 74 249 186 312 349 l21 56 3
1788 c3 1987 7 1851 -65 1991 -49 95 -164 209 -253 253 -93 45 -166 62 -306
69 l-122 7 -4 126 c-5 153 -26 215 -98 294 -61 67 -128 103 -217 119 -171 29
-339 -71 -404 -239 -16 -44 -23 -88 -27 -180 l-5 -123 -187 0 -187 0 -6 118
c-7 140 -24 200 -77 274 -165 231 -510 197 -634 -62 -29 -61 -31 -74 -34 -197
l-4 -133 -194 0 -194 0 0 108 c0 123 -16 192 -62 264 -56 89 -136 146 -236
167 -68 14 -104 13 -172 -5z m153 -208 c39 -16 82 -61 96 -99 7 -18 11 -164
11 -408 0 -419 0 -421 -63 -476 -84 -74 -200 -45 -248 62 -17 36 -19 73 -19
413 0 314 2 378 15 410 39 93 125 134 208 98z m1173 -21 c69 -53 69 -54 69
-490 0 -435 1 -426 -70 -481 -76 -58 -180 -36 -230 49 l-25 44 0 390 c0 387 0
390 23 434 46 88 155 113 233 54z m1097 21 c39 -16 82 -61 96 -99 7 -18 11
-165 11 -411 0 -380 0 -383 -23 -426 -26 -49 -90 -90 -139 -90 -69 0 -138 56
-158 128 -13 50 -13 734 0 784 28 98 126 151 213 114z m717 -2778 c0 -1560 -1
-1573 -21 -1618 -28 -63 -74 -107 -136 -130 -53 -20 -79 -20 -1773 -20 -1694
0 -1720 0 -1773 20 -62 23 -108 67 -136 130 -20 45 -21 58 -21 1618 l0 1572
1930 0 1930 0 0 -1572z"/>
<path d="M945 3057 c-3 -7 -4 -136 -3 -287 l3 -275 323 -3 322 -2 0 290 0 290
-320 0 c-249 0 -322 -3 -325 -13z"/>
<path d="M1810 2780 l0 -290 320 0 320 0 0 290 0 290 -320 0 -320 0 0 -290z"/>
<path d="M2670 2780 l0 -290 320 0 320 0 0 290 0 290 -320 0 -320 0 0 -290z"/>
<path d="M3530 2780 l0 -290 325 0 325 0 -2 288 -3 287 -322 3 -323 2 0 -290z"/>
<path d="M945 2287 c-3 -7 -4 -136 -3 -287 l3 -275 323 -3 322 -2 0 290 0 290
-320 0 c-249 0 -322 -3 -325 -13z"/>
<path d="M1810 2010 l0 -290 320 0 320 0 0 290 0 290 -320 0 -320 0 0 -290z"/>
<path d="M2670 2010 l0 -290 320 0 320 0 0 290 0 290 -320 0 -320 0 0 -290z"/>
<path d="M3530 2010 l0 -290 323 2 322 3 0 285 0 285 -322 3 -323 2 0 -290z"/>
<path d="M940 1245 l0 -285 325 0 325 0 0 285 0 285 -325 0 -325 0 0 -285z"/>
<path d="M1810 1245 l0 -285 320 0 320 0 0 285 0 285 -320 0 -320 0 0 -285z"/>
<path d="M2670 1245 l0 -285 320 0 320 0 0 285 0 285 -320 0 -320 0 0 -285z"/>
<path d="M3530 1245 l0 -285 325 0 325 0 0 285 0 285 -325 0 -325 0 0 -285z"/>
</g>
</svg>
