<?xml version="1.0" standalone="no"?>
<!DOCTYPE svg PUBLIC "-//W3C//DTD SVG 20010904//EN"
 "http://www.w3.org/TR/2001/REC-SVG-20010904/DTD/svg10.dtd">
<svg version="1.0" xmlns="http://www.w3.org/2000/svg"
 width="512.000000pt" height="512.000000pt" viewBox="0 0 512.000000 512.000000"
 preserveAspectRatio="xMidYMid meet">

<g transform="translate(0.000000,512.000000) scale(0.100000,-0.100000)"
fill="#000000" stroke="none">
<path d="M3906 4805 c-230 -47 -430 -157 -593 -323 l-62 -64 -143 26 c-214 38
-320 47 -563 47 -402 -1 -712 -56 -1032 -185 -440 -177 -798 -492 -995 -873
-29 -57 -56 -103 -61 -103 -19 0 -101 89 -124 134 -88 174 25 397 216 425 l46
6 3 151 3 150 -68 -7 c-447 -48 -681 -560 -427 -932 55 -79 127 -146 202 -184
47 -25 52 -31 48 -53 -119 -553 -36 -1075 240 -1498 137 -211 354 -425 562
-556 l42 -26 0 -320 0 -320 423 0 422 0 76 151 75 152 353 1 354 1 76 -152 76
-153 422 0 423 0 0 319 0 318 68 45 c111 74 211 160 322 275 129 134 220 261
302 420 l63 123 233 0 232 0 0 600 0 600 -185 0 c-140 0 -187 3 -189 13 -96
322 -212 548 -381 741 l-65 75 115 462 c64 254 114 463 113 464 -2 1 -55 15
-118 31 -97 23 -140 28 -275 30 -109 2 -182 -1 -229 -11z m254 -295 c0 -6 -43
-182 -95 -391 l-96 -381 93 -97 c218 -228 350 -482 408 -786 12 -60 23 -120
26 -132 4 -23 7 -23 164 -23 l160 0 0 -300 0 -300 -187 -2 -187 -3 -51 -125
c-66 -164 -114 -250 -206 -373 -85 -114 -200 -228 -311 -310 -72 -53 -226
-149 -260 -162 -17 -7 -18 -29 -18 -266 l0 -259 -180 0 -180 0 -85 170 c-47
94 -87 170 -90 170 -2 0 -53 -8 -112 -17 -155 -26 -651 -26 -806 0 -59 9 -110
17 -112 17 -3 0 -43 -76 -90 -170 l-85 -170 -180 0 -180 0 0 258 0 257 -62 34
c-640 349 -947 1018 -802 1746 59 292 193 537 413 755 171 170 332 278 551
368 288 120 579 173 950 173 304 0 547 -35 811 -116 11 -4 30 16 64 67 129
194 320 325 536 367 64 13 199 13 199 1z"/>
<path d="M2394 3889 c-140 -7 -332 -36 -432 -65 -41 -12 -52 -19 -48 -32 3 -9
21 -74 41 -143 l37 -126 76 18 c142 34 292 50 477 50 198 0 313 -11 464 -45
90 -20 101 -21 105 -7 3 9 19 66 36 126 17 61 33 118 36 127 4 14 -6 20 -48
32 -94 27 -277 56 -392 61 -61 3 -133 7 -161 9 -27 1 -113 -1 -191 -5z"/>
<path d="M2400 3136 l0 -164 -56 -28 c-69 -35 -150 -113 -186 -180 -156 -288
24 -627 351 -664 89 -10 132 -29 164 -71 28 -38 32 -106 10 -149 -64 -123
-254 -99 -279 36 l-6 34 -149 0 -149 0 0 -28 c0 -45 28 -141 57 -194 36 -66
111 -139 183 -177 l60 -32 0 -160 0 -159 150 0 150 0 0 160 0 160 58 29 c181
91 278 308 227 506 -50 192 -203 318 -409 339 -38 4 -81 13 -96 21 -119 62
-96 237 35 274 71 19 155 -28 176 -100 l12 -39 149 0 c170 0 162 -7 133 105
-32 122 -125 239 -231 291 l-54 26 0 164 0 164 -150 0 -150 0 0 -164z"/>
<path d="M3600 3150 l0 -150 150 0 150 0 0 150 0 150 -150 0 -150 0 0 -150z"/>
</g>
</svg>
